# xmcd CD database file
# Copyright (C) 1993-1998 Ti Kan
#
# Track frame offsets:
#	180
#	7141
#	22188
#	37294
#	58888
#	73378
#	87412
#	103445
#	118074
#	126956
#	136005
#	153956
#	167121
#	191277
#	209523
#
# Disc length: 2980 seconds
#
# Revision: 1
# Processed by: cddbd v1.4b41PL1 Copyright (c) Steve Scherf et al.
# Submitted via: CDValet v3.31 - Copyright (c) 1997 Greg Leichner
#
DISCID=e90ba20f
DTITLE=Harpdog Brown and The Bloodhounds - Beware of Dog
DYEAR=1900
DGENRE=
TTITLE0=What Am I Feeling
TTITLE1=Worried About You
TTITLE2=Whiskey Bottle
TTITLE3=How Come
TTITLE4=Need My Baby
TTITLE5=Cloud Full of Rain
TTITLE6=Give This Poor Dog A Bone
TTITLE7=Fine Little Girl Rag
TTITLE8=Dog's Breakfast
TTITLE9=Hidden Charms
TTITLE10=Ready For Your Love
TTITLE11=My Heart Is On The Line
TTITLE12=Sacrifice
TTITLE13=Oh Little Sarah
TTITLE14=Moving Down Side The River Rhine
EXTD=
EXTT0=
EXTT1=
EXTT2=
EXTT3=
EXTT4=
EXTT5=
EXTT6=
EXTT7=
EXTT8=
EXTT9=
EXTT10=
EXTT11=
EXTT12=
EXTT13=
EXTT14=
PLAYORDER=
